<?xml version="1.0" encoding="UTF-8"?>
<svg id="Layer_1" data-name="Layer 1" xmlns="http://www.w3.org/2000/svg" viewBox="0 0 201.6 131.04">
  <defs>
    <style>
      .cls-1 {
        fill: #841617;
      }

      .cls-1, .cls-2, .cls-3, .cls-4, .cls-5 {
        stroke-width: 0px;
      }

      .cls-2 {
        fill: #8ca57d;
      }

      .cls-3 {
        fill: #323232;
      }

      .cls-4 {
        fill: #bcdceb;
      }

      .cls-5 {
        fill: #fff;
      }
    </style>
  </defs>
  <g>
    <path class="cls-1" d="M90.78,50.24c0,14.15-10.47,25.92-27.11,25.92h-19.69V24.32h19.69c11.42,0,19.94,5.53,24.16,13.59l-27.8,22.82c-1.2-1.2-2.84-1.95-4.66-1.95-3.61,0-6.55,2.94-6.55,6.55s2.94,6.54,6.55,6.54,6.55-2.93,6.55-6.54c0-1.36-.42-2.63-1.14-3.67l27.6-22.65c1.57,3.41,2.4,7.22,2.4,11.22Z"/>
    <path class="cls-1" d="M107.2,31.14v45.02h-6.4V31.14c.94.54,2.03.84,3.19.84s2.26-.3,3.2-.84Z"/>
    <path class="cls-1" d="M166.15,24.32l-23.03,52.15h-5.85l-16.68-37.76,14.05,10.6c-.62,1-.99,2.18-.99,3.44,0,3.61,2.94,6.55,6.55,6.55s6.54-2.94,6.54-6.55c0-2.2-1.09-4.14-2.76-5.33l13.41-23.11h8.76Z"/>
    <path class="cls-1" d="M156,24.32l-13.05,22.51c-.84-.39-1.77-.61-2.75-.61-1.92,0-3.65.82-4.84,2.14l-15.75-11.89-5.37-12.14h41.77Z"/>
    <path class="cls-4" d="M159.25,21.11l-1.86,3.22h-1.39l2.21-3.83c.32.24.67.43,1.04.61Z"/>
    <path class="cls-4" d="M120.6,38.72l-11.76-8.88c.26-.3.5-.62.72-.96l10.05,7.59.99,2.25Z"/>
    <path class="cls-4" d="M99.34,30.03l-10.96,8.99c-.18-.37-.36-.73-.55-1.1l10.75-8.81c.23.32.48.63.77.92Z"/>
    <path class="cls-5" d="M88.38,39.02l-27.6,22.65c-.23-.33-.48-.65-.75-.93l27.8-22.82c.19.37.37.73.55,1.1Z"/>
    <path class="cls-5" d="M135.36,48.36c-.26.3-.5.62-.72.96l-14.05-10.6-.99-2.25,15.75,11.89Z"/>
    <path class="cls-5" d="M157.39,24.32l-13.41,23.11c-.32-.23-.67-.43-1.03-.6l13.05-22.51h1.39Z"/>
    <path class="cls-2" d="M108.15,25.44c0,.72-.2,1.39-.53,1.98-.13.23-.27.43-.43.63-.1.11-.18.23-.27.33-.75.74-1.79,1.2-2.93,1.2-1.08,0-2.04-.42-2.79-1.09-.16-.14-.29-.29-.41-.44-.13-.16-.25-.31-.35-.49-.38-.62-.61-1.35-.61-2.13,0-2.3,1.85-4.16,4.15-4.16s4.16,1.86,4.16,4.16Z"/>
    <path class="cls-4" d="M144.35,52.76c0,2.3-1.85,4.16-4.15,4.16s-4.16-1.86-4.16-4.16c0-.72.2-1.4.53-1.98.19-.36.43-.68.71-.97.75-.74,1.78-1.2,2.93-1.2.54,0,1.06.11,1.54.3.37.16.72.36,1.03.61.96.77,1.58,1.92,1.58,3.24Z"/>
    <path class="cls-2" d="M166.15,15.17c0,2.3-1.85,4.16-4.15,4.16-.55,0-1.06-.11-1.54-.3-.38-.16-.72-.37-1.03-.61-.97-.76-1.59-1.92-1.59-3.25,0-2.3,1.86-4.15,4.16-4.15s4.15,1.85,4.15,4.15Z"/>
    <path class="cls-4" d="M59.52,65.34c0,2.3-1.86,4.15-4.16,4.15s-4.16-1.85-4.16-4.15,1.86-4.16,4.16-4.16c1.08,0,2.06.42,2.79,1.09.3.27.55.59.77.93.37.62.61,1.35.61,2.14Z"/>
  </g>
  <g>
    <path class="cls-3" d="M15.19,88.69h4.07c3.38,0,5.51,2.35,5.51,5.19s-2.13,5.19-5.51,5.19h-4.07v-10.37ZM19.17,97.46c2.19,0,3.65-1.52,3.65-3.59s-1.46-3.58-3.65-3.58h-2.13v7.17h2.13Z"/>
    <path class="cls-3" d="M30.71,88.69h1.76l4.67,10.37h-1.89l-.82-1.79h-5.7l-.82,1.79h-1.89l4.67-10.37ZM33.8,95.79l-1.18-2.69c-.45-1.02-1.02-2.42-1.02-2.42,0,0-.56,1.38-1.02,2.42l-1.18,2.69h4.42Z"/>
    <path class="cls-3" d="M40.68,90.29h-3.65v-1.6h9.16v1.6h-3.65v8.77h-1.86v-8.77Z"/>
    <path class="cls-3" d="M50.74,88.69h1.76l4.67,10.37h-1.89l-.82-1.79h-5.7l-.82,1.79h-1.89l4.67-10.37ZM53.83,95.79l-1.18-2.69c-.45-1.02-1.02-2.42-1.02-2.42,0,0-.56,1.38-1.02,2.42l-1.18,2.69h4.42Z"/>
    <path class="cls-3" d="M63.23,88.69h1.86v10.37h-1.86v-10.37Z"/>
    <path class="cls-3" d="M67.94,88.69h1.89l3.71,5.09c.74,1.01,1.58,2.45,1.58,2.45v-7.54h1.86v10.37h-1.92l-3.54-4.83c-.9-1.23-1.73-2.64-1.73-2.64v7.47h-1.86v-10.37Z"/>
    <path class="cls-3" d="M82.72,90.29h-3.65v-1.6h9.16v1.6h-3.65v8.77h-1.86v-8.77Z"/>
    <path class="cls-3" d="M90.32,88.69h8.05v1.6h-6.19v2.53h5.84v1.58h-5.84v3.06h6.42v1.6h-8.28v-10.37Z"/>
    <path class="cls-3" d="M100.72,88.69h4.39c2.98,0,4.56,1.78,4.56,3.97,0,1.39-.75,2.71-2.13,3.36l2.29,3.04h-2.16l-1.81-2.53c-.29.05-.61.08-.93.08h-2.35v2.45h-1.86v-10.37ZM105.19,95.01c1.49,0,2.53-1.06,2.53-2.35s-1.04-2.38-2.51-2.38h-2.62v4.74h2.61Z"/>
    <path class="cls-3" d="M115.78,88.69h1.76l4.67,10.37h-1.89l-.82-1.79h-5.7l-.82,1.79h-1.89l4.67-10.37ZM118.87,95.79l-1.18-2.69c-.45-1.02-1.02-2.42-1.02-2.42,0,0-.56,1.38-1.02,2.42l-1.18,2.69h4.42Z"/>
    <path class="cls-3" d="M123.49,93.86c0-2.95,2.32-5.33,5.46-5.33,1.34,0,2.58.45,3.49,1.22l-1.07,1.25c-.7-.54-1.47-.78-2.29-.78-2.15,0-3.65,1.67-3.65,3.65s1.5,3.68,3.54,3.68c1.01,0,1.94-.37,2.61-1.02l1.14,1.28c-.96.88-2.27,1.42-3.76,1.42-3.14,0-5.46-2.38-5.46-5.36Z"/>
    <path class="cls-3" d="M137.57,90.29h-3.65v-1.6h9.16v1.6h-3.65v8.77h-1.86v-8.77Z"/>
    <path class="cls-3" d="M145.17,88.69h1.86v10.37h-1.86v-10.37Z"/>
    <path class="cls-3" d="M149.47,93.87c0-2.96,2.32-5.35,5.46-5.35s5.46,2.38,5.46,5.35-2.32,5.35-5.46,5.35-5.46-2.37-5.46-5.35ZM158.45,93.87c0-2-1.5-3.67-3.5-3.67s-3.54,1.67-3.54,3.67,1.5,3.67,3.54,3.67,3.5-1.67,3.5-3.67Z"/>
    <path class="cls-3" d="M162.83,88.69h1.89l3.71,5.09c.74,1.01,1.58,2.45,1.58,2.45v-7.54h1.86v10.37h-1.92l-3.54-4.83c-.9-1.23-1.73-2.64-1.73-2.64v7.47h-1.86v-10.37Z"/>
    <path class="cls-3" d="M174.3,97.73l.72-1.41c.85.69,1.89,1.22,3.44,1.22,1.12,0,2.24-.53,2.24-1.47s-1.07-1.23-2.13-1.49c-1.9-.45-3.87-1.06-3.87-3.12,0-1.94,1.84-2.93,3.76-2.93,1.49,0,2.64.42,3.68,1.12l-.72,1.42c-.93-.59-1.89-.86-2.96-.86-.69,0-1.87.29-1.87,1.23,0,.83.93,1.1,2.18,1.41,1.97.46,3.87,1.2,3.87,3.22,0,2.18-2.14,3.15-4.19,3.15-2.26,0-3.46-.85-4.15-1.49Z"/>
    <path class="cls-3" d="M12.85,113.25c0-1.02.54-2.1,1.75-2.85-.38-.61-.66-1.25-.66-1.95,0-1.25.93-2.72,2.95-2.72.94,0,2.14.29,2.91,2l-1.46.93c-.27-.78-.8-1.33-1.42-1.33-.7,0-1.15.51-1.15,1.12,0,.72.46,1.47,1.5,2.53l2.03,2.05c.14-.22.3-.58.3-1.2h1.68c0,.96-.32,1.95-.7,2.43l1.09,1.09-1.1,1.12-1.09-1.06c-.86.66-2,1.01-3.07,1.01-1.84,0-3.55-1.01-3.55-3.17ZM18.23,114.26l-2.66-2.62c-.64.4-.93.96-.93,1.5,0,.94.8,1.62,1.94,1.62.61,0,1.17-.19,1.65-.5Z"/>
    <path class="cls-3" d="M26.24,105.89h1.89l2.48,5.94c.3.75.82,2.32.82,2.32,0,0,.51-1.57.82-2.32l2.48-5.94h1.91l-4.29,10.4h-1.81l-4.29-10.4Z"/>
    <path class="cls-3" d="M38.55,105.89h1.86v10.37h-1.86v-10.37Z"/>
    <path class="cls-3" d="M42.83,114.93l.72-1.41c.85.69,1.89,1.22,3.44,1.22,1.12,0,2.24-.53,2.24-1.47s-1.07-1.23-2.13-1.49c-1.9-.45-3.87-1.06-3.87-3.12,0-1.94,1.84-2.93,3.76-2.93,1.49,0,2.64.42,3.68,1.12l-.72,1.42c-.93-.59-1.89-.86-2.96-.86-.69,0-1.87.29-1.87,1.23,0,.83.93,1.1,2.18,1.41,1.97.46,3.87,1.2,3.87,3.22,0,2.18-2.14,3.15-4.19,3.15-2.26,0-3.46-.85-4.15-1.49Z"/>
    <path class="cls-3" d="M53.54,112.13v-6.24h1.86v6.15c0,1.71.96,2.69,2.56,2.69s2.54-.98,2.54-2.69v-6.15h1.86v6.24c0,2.67-1.73,4.29-4.4,4.29s-4.42-1.62-4.42-4.29Z"/>
    <path class="cls-3" d="M68.51,105.89h1.76l4.67,10.37h-1.89l-.82-1.79h-5.7l-.82,1.79h-1.89l4.67-10.37ZM71.6,112.99l-1.18-2.69c-.45-1.02-1.02-2.42-1.02-2.42,0,0-.56,1.38-1.02,2.42l-1.18,2.69h4.42Z"/>
    <path class="cls-3" d="M76.86,105.89h1.86v8.77h6.21v1.6h-8.07v-10.37Z"/>
    <path class="cls-3" d="M87.23,105.89h1.86v10.37h-1.86v-10.37Z"/>
    <path class="cls-3" d="M91.34,114.85l5.15-6.26c.59-.74.99-1.1.99-1.1h-5.88v-1.6h8.18v1.42l-4.98,6.05c-.64.77-1.14,1.3-1.14,1.3h6.27v1.6h-8.61v-1.41Z"/>
    <path class="cls-3" d="M106.02,105.89h1.76l4.67,10.37h-1.89l-.82-1.79h-5.7l-.82,1.79h-1.89l4.67-10.37ZM109.11,112.99l-1.18-2.69c-.45-1.02-1.02-2.42-1.02-2.42,0,0-.56,1.38-1.02,2.42l-1.18,2.69h4.42Z"/>
    <path class="cls-3" d="M115.99,107.49h-3.65v-1.6h9.16v1.6h-3.65v8.77h-1.86v-8.77Z"/>
    <path class="cls-3" d="M123.58,105.89h1.86v10.37h-1.86v-10.37Z"/>
    <path class="cls-3" d="M127.89,111.07c0-2.96,2.32-5.35,5.46-5.35s5.46,2.38,5.46,5.35-2.32,5.35-5.46,5.35-5.46-2.37-5.46-5.35ZM136.87,111.07c0-2-1.5-3.67-3.5-3.67s-3.54,1.67-3.54,3.67,1.5,3.67,3.54,3.67,3.5-1.67,3.5-3.67Z"/>
    <path class="cls-3" d="M141.25,105.89h1.89l3.71,5.09c.74,1.01,1.58,2.45,1.58,2.45v-7.54h1.86v10.37h-1.92l-3.54-4.83c-.9-1.23-1.73-2.64-1.73-2.64v7.47h-1.86v-10.37Z"/>
    <path class="cls-3" d="M157.28,105.89h1.86v8.77h6.21v1.6h-8.07v-10.37Z"/>
    <path class="cls-3" d="M171.33,105.89h1.76l4.67,10.37h-1.89l-.82-1.79h-5.7l-.82,1.79h-1.89l4.67-10.37ZM174.42,112.99l-1.18-2.69c-.45-1.02-1.02-2.42-1.02-2.42,0,0-.56,1.38-1.02,2.42l-1.18,2.69h4.42Z"/>
    <path class="cls-3" d="M179.68,105.89h4.83c1.71,0,3.11.8,3.11,2.62,0,.82-.51,1.57-1.09,1.86,1.18.26,2.07,1.31,2.07,2.66,0,2.13-1.62,3.23-3.94,3.23h-4.98v-10.37ZM184.42,109.81c.8,0,1.26-.43,1.26-1.14s-.45-1.18-1.34-1.18h-2.8v2.32h2.88ZM184.53,114.66c1.3,0,2.13-.53,2.13-1.6s-.77-1.67-1.95-1.67h-3.17v3.27h2.99Z"/>
  </g>
</svg>